<?xml version="1.0" encoding="UTF-8" standalone="no"?>
<svg
   xmlns:dc="http://purl.org/dc/elements/1.1/"
   xmlns:cc="http://creativecommons.org/ns#"
   xmlns:rdf="http://www.w3.org/1999/02/22-rdf-syntax-ns#"
   xmlns:svg="http://www.w3.org/2000/svg"
   xmlns="http://www.w3.org/2000/svg"
   xmlns:sodipodi="http://sodipodi.sourceforge.net/DTD/sodipodi-0.dtd"
   xmlns:inkscape="http://www.inkscape.org/namespaces/inkscape"
   version="1.1"
   id="svg2"
   xml:space="preserve"
   width="32"
   height="26.666668"
   viewBox="0 0 32 26.666668"
   sodipodi:docname="news-icon1.svg"
   inkscape:version="1.0.2 (e86c870879, 2021-01-15, custom)"><metadata
     id="metadata8"><rdf:RDF><cc:Work
         rdf:about=""><dc:format>image/svg+xml</dc:format><dc:type
           rdf:resource="http://purl.org/dc/dcmitype/StillImage" /><dc:title></dc:title></cc:Work></rdf:RDF></metadata><defs
     id="defs6"><clipPath
       clipPathUnits="userSpaceOnUse"
       id="clipPath18"><path
         d="M 0,20 H 24 V 0 H 0 Z"
         id="path16" /></clipPath></defs><sodipodi:namedview
     pagecolor="#ffffff"
     bordercolor="#666666"
     borderopacity="1"
     objecttolerance="10"
     gridtolerance="10"
     guidetolerance="10"
     inkscape:pageopacity="0"
     inkscape:pageshadow="2"
     inkscape:window-width="1920"
     inkscape:window-height="1017"
     id="namedview4"
     showgrid="false"
     inkscape:zoom="15.937499"
     inkscape:cx="20.109683"
     inkscape:cy="9.0057803"
     inkscape:window-x="-8"
     inkscape:window-y="-8"
     inkscape:window-maximized="1"
     inkscape:current-layer="g10" /><g
     id="g10"
     inkscape:groupmode="layer"
     inkscape:label="Vector Smart Object2"
     transform="matrix(1.3333333,0,0,-1.3333333,0,26.666667)"><g
       id="g12"
       style="fill:#0082c9;fill-opacity:1"><g
         id="g14"
         clip-path="url(#clipPath18)"
         style="fill:#0082c9;fill-opacity:1"><path
           d="M 13,15 H 7 v -4 h 6 z M 22,3 H 5 V 18 H 22 Z M 3,20 V 2.801 C 3,2.03 2,2.03 2,2.801 V 18 H 0 V 2.02 C 0,0.905 0.905,0 2.02,0 H 21.978 C 23.095,0 24,0.904 24,2.02 V 20 Z m 17,-8 h -5 v -1 h 5 z m 0,3 h -5 v -1 h 5 z M 20,9 H 7 V 8 H 20 Z M 7,6 H 20 V 5 H 7 Z"
           style="fill:#0082c9;fill-opacity:1;fill-rule:nonzero;stroke:none"
           id="path20" /></g></g></g></svg>
