<?xml version="1.0" encoding="UTF-8" standalone="no"?>
<svg
   xmlns:dc="http://purl.org/dc/elements/1.1/"
   xmlns:cc="http://creativecommons.org/ns#"
   xmlns:rdf="http://www.w3.org/1999/02/22-rdf-syntax-ns#"
   xmlns:svg="http://www.w3.org/2000/svg"
   xmlns="http://www.w3.org/2000/svg"
   xmlns:sodipodi="http://sodipodi.sourceforge.net/DTD/sodipodi-0.dtd"
   xmlns:inkscape="http://www.inkscape.org/namespaces/inkscape"
   version="1.1"
   id="svg2"
   xml:space="preserve"
   width="812.3833"
   height="809.56427"
   viewBox="0 0 812.3833 809.56429"
   sodipodi:docname="made-in-holland.svg"
   inkscape:version="1.0.2 (e86c870879, 2021-01-15, custom)"><metadata
     id="metadata8"><rdf:RDF><cc:Work
         rdf:about=""><dc:format>image/svg+xml</dc:format><dc:type
           rdf:resource="http://purl.org/dc/dcmitype/StillImage" /><dc:title></dc:title></cc:Work></rdf:RDF></metadata><defs
     id="defs6"><clipPath
       clipPathUnits="userSpaceOnUse"
       id="clipPath18"><path
         d="M 0,956.03 H 956.221 V 0 H 0 Z"
         id="path16" /></clipPath></defs><sodipodi:namedview
     pagecolor="#ffffff"
     bordercolor="#666666"
     borderopacity="1"
     objecttolerance="10"
     gridtolerance="10"
     guidetolerance="10"
     inkscape:pageopacity="0"
     inkscape:pageshadow="2"
     inkscape:window-width="1920"
     inkscape:window-height="1017"
     id="namedview4"
     showgrid="false"
     inkscape:zoom="0.66682008"
     inkscape:cx="407.03759"
     inkscape:cy="405.61274"
     inkscape:window-x="-8"
     inkscape:window-y="-8"
     inkscape:window-maximized="1"
     inkscape:current-layer="g10" /><g
     id="g10"
     inkscape:groupmode="layer"
     inkscape:label="logo"
     transform="matrix(1.3333333,0,0,-1.3333333,-230.44306,1042.9661)"><g
       id="g12"><g
         id="g14"
         clip-path="url(#clipPath18)"><g
           id="g20"
           transform="translate(615.2036,558.2061)"><path
             d="m 0,0 c -0.57,-35.479 -5.551,-81.687 -23.084,-125.348 -19.238,-47.993 -53.663,-92.948 -114.012,-117.247 -49.773,20.01 -81.888,54.109 -102.423,92.378 37.016,4.861 80.31,16.446 123.566,41.149 C -75.494,-85.98 -35.076,-51.394 0,0"
             style="fill:#d1d5d4;fill-opacity:1;fill-rule:nonzero;stroke:none"
             id="path22" /></g><g
           id="g24"
           transform="translate(363.5347,434.1973)"><path
             d="M 0,0 C 30.862,2.992 67.027,10.488 104.287,26.768 61.356,45.438 16.973,75.69 -22.516,123.968 -21.953,88.854 -17.051,43.252 0,0"
             style="fill:#d1d5d4;fill-opacity:1;fill-rule:nonzero;stroke:none"
             id="path26" /></g><g
           id="g28"
           transform="translate(644.7417,587.4424)"><path
             d="m 0,0 h -333.264 c 0,-65.297 0.769,-242.352 166.632,-303.151 C -0.769,-242.352 0,-65.297 0,0 m -10.019,-10 c -0.174,-33.279 -1.975,-86.712 -20.541,-139.971 -11.197,-32.12 -27.185,-59.938 -47.517,-82.68 -23.414,-26.189 -53.191,-46.302 -88.555,-59.823 -35.364,13.521 -65.141,33.634 -88.555,59.823 -20.332,22.742 -36.319,50.56 -47.517,82.68 -18.566,53.259 -20.366,106.692 -20.541,139.971 h 313.226"
             style="fill:#d1d5d4;fill-opacity:1;fill-rule:nonzero;stroke:none"
             id="path30" /></g><g
           id="g32"
           transform="translate(180.2813,410.084)"><path
             d="M 0,0 -1.608,16.753 55.145,44.644 -5.84,60.817 -7.449,77.57 63.42,84.376 64.396,74.223 3.07,68.334 3.089,68.131 66.667,50.566 67.623,40.616 8.55,11.272 8.569,11.069 69.895,16.959 70.87,6.806 Z"
             style="fill:#d1d5d4;fill-opacity:1;fill-rule:nonzero;stroke:none"
             id="path34" /></g><g
           id="g36"
           transform="translate(193.8325,550.7246)"><path
             d="M 0,0 30.678,-22.479 37.703,4.992 Z M -10.527,-2.467 -7.874,7.909 68.554,19.422 65.8,8.651 46.614,6.082 37.972,-27.713 53.57,-39.176 50.917,-49.552 Z"
             style="fill:#d1d5d4;fill-opacity:1;fill-rule:nonzero;stroke:none"
             id="path38" /></g><g
           id="g40"
           transform="translate(263.834,589.3906)"><path
             d="m 0,0 5.646,9.101 c 9.249,14.906 7.164,27.603 -8.437,37.282 -14.127,8.764 -28.417,4.306 -36.16,-8.174 l -6.291,-10.141 z m -58.246,24.134 11.077,17.853 C -36.038,59.929 -16.072,67.346 2.562,55.785 22.843,43.202 25.694,24.389 13.327,4.455 L 2.25,-13.399 Z"
             style="fill:#d1d5d4;fill-opacity:1;fill-rule:nonzero;stroke:none"
             id="path42" /></g><g
           id="g44"
           transform="translate(253.814,682.5869)"><path
             d="M 0,0 28.638,27.754 34.884,21.309 13.571,0.652 28.052,-14.289 47.461,4.522 l 6.247,-6.445 -19.41,-18.811 16.327,-16.846 21.313,20.656 6.247,-6.445 -28.638,-27.754 z"
             style="fill:#d1d5d4;fill-opacity:1;fill-rule:nonzero;stroke:none"
             id="path46" /></g><g
           id="g48"
           transform="translate(328.4741,741.6016)"><path
             d="m 0,0 8.949,4.894 34.157,-62.466 -8.949,-4.894 z"
             style="fill:#d1d5d4;fill-opacity:1;fill-rule:nonzero;stroke:none"
             id="path50" /></g><g
           id="g52"
           transform="translate(364.7485,760.4824)"><path
             d="m 0,0 13.293,3.963 46.486,-45.957 0.196,0.057 -16.38,54.935 9.775,2.914 20.343,-68.227 -12.512,-3.731 -47.617,46.898 -0.195,-0.059 16.728,-56.106 -9.774,-2.916 z"
             style="fill:#d1d5d4;fill-opacity:1;fill-rule:nonzero;stroke:none"
             id="path54" /></g><g
           id="g56"
           transform="translate(482.751,782.2246)"><path
             d="m 0,0 10.146,-1.059 -3.092,-29.625 33.886,-3.537 3.092,29.625 10.145,-1.058 -7.391,-70.817 -10.146,1.06 3.368,32.263 -33.886,3.537 -3.368,-32.264 -10.146,1.06 z"
             style="fill:#d1d5d4;fill-opacity:1;fill-rule:nonzero;stroke:none"
             id="path58" /></g><g
           id="g60"
           transform="translate(571.3589,698.7627)"><path
             d="M 0,0 C 15.123,-6.399 26.931,3.444 32.456,16.501 38.101,29.84 36.208,45.26 21.703,51.287 7.277,57.503 -5.109,48.124 -10.753,34.786 -16.278,21.729 -15.124,6.399 0,0 M 25.201,59.554 C 45.115,51.127 50.641,31.731 42.413,12.288 33.986,-7.626 16.51,-16.733 -3.498,-8.267 -23.506,0.2 -29.137,19.085 -20.71,38.999 -12.482,58.443 5.287,67.98 25.201,59.554"
             style="fill:#d1d5d4;fill-opacity:1;fill-rule:nonzero;stroke:none"
             id="path62" /></g><g
           id="g64"
           transform="translate(650.5581,727.7451)"><path
             d="m 0,0 8.062,-6.25 -38.125,-49.174 23.538,-18.25 -5.5,-7.094 -31.6,24.5 z"
             style="fill:#d1d5d4;fill-opacity:1;fill-rule:nonzero;stroke:none"
             id="path66" /></g><g
           id="g68"
           transform="translate(698.5679,686.5381)"><path
             d="m 0,0 6.597,-7.781 -47.461,-40.238 19.261,-22.718 -6.847,-5.806 -25.858,30.5 z"
             style="fill:#d1d5d4;fill-opacity:1;fill-rule:nonzero;stroke:none"
             id="path70" /></g><g
           id="g72"
           transform="translate(744.5698,600.9297)"><path
             d="m 0,0 -37.984,-1.891 11.864,-25.753 z m 6.616,8.551 4.482,-9.727 -52.07,-57.117 -4.652,10.098 13.273,14.088 -14.595,31.681 -19.334,-0.934 -4.482,9.727 z"
             style="fill:#d1d5d4;fill-opacity:1;fill-rule:nonzero;stroke:none"
             id="path74" /></g><g
           id="g76"
           transform="translate(775.0298,544.585)"><path
             d="m 0,0 1.766,-13.759 -52.856,-38.456 0.026,-0.203 56.855,7.298 1.299,-10.116 -70.614,-9.064 -1.663,12.949 53.966,39.422 -0.025,0.202 -58.069,-7.454 -1.299,10.118 z"
             style="fill:#d1d5d4;fill-opacity:1;fill-rule:nonzero;stroke:none"
             id="path78" /></g><g
           id="g80"
           transform="translate(718.8745,460.2861)"><path
             d="m 0,0 -1.578,-10.593 c -2.585,-17.353 4.361,-28.185 22.521,-30.891 16.446,-2.45 27.799,7.306 29.963,21.835 l 1.759,11.804 z M 63.047,0.921 59.95,-19.862 C 56.839,-40.747 41.445,-55.47 19.754,-52.238 c -23.608,3.516 -33.683,19.662 -30.226,42.867 l 3.097,20.783 z"
             style="fill:#d1d5d4;fill-opacity:1;fill-rule:nonzero;stroke:none"
             id="path82" /></g><g
           id="g84"
           transform="translate(228.5908,337.9668)"><path
             d="m 0,0 c 0.562,-5.54 2.721,-12.337 7.14,-18.83 3.386,-4.975 7.611,-9.008 12.333,-5.794 10.962,7.461 -14.89,30.58 6.527,45.157 14.166,9.641 27.456,-1.548 35.49,-13.352 3.845,-5.65 6.79,-11.788 8.138,-16.67 l -12.831,-7.252 c -0.9,5.309 -3.155,10.437 -6.197,14.906 -2.697,3.963 -7.511,10.311 -12.654,6.81 -9.529,-6.485 15.818,-29.95 -5.43,-44.412 -15.263,-10.386 -28.117,-0.382 -37.013,12.688 -3.73,5.48 -7.535,12.885 -9.407,19.26 z"
             style="fill:#d1d5d4;fill-opacity:1;fill-rule:nonzero;stroke:none"
             id="path86" /></g><g
           id="g88"
           transform="translate(307.1768,321.7695)"><path
             d="m 0,0 13.368,-13.464 -50.527,-50.164 -13.367,13.464 z"
             style="fill:#d1d5d4;fill-opacity:1;fill-rule:nonzero;stroke:none"
             id="path90" /></g><g
           id="g92"
           transform="translate(326.3159,300.3359)"><path
             d="m 0,0 20.389,-12.986 -5.67,-53.709 0.173,-0.11 25.714,40.942 14.625,-9.315 -38.247,-60.049 -19.872,12.659 5.145,54.405 -0.172,0.109 -25.62,-41.364 -14.711,9.37 z"
             style="fill:#d1d5d4;fill-opacity:1;fill-rule:nonzero;stroke:none"
             id="path94" /></g><g
           id="g96"
           transform="translate(424.1519,180.1934)"><path
             d="m 0,0 c -5.561,0.245 -11.767,0.466 -21.067,3.188 -18.21,5.327 -36.566,20.687 -29.005,46.533 6.96,23.789 27.068,30.766 49.585,24.178 6.951,-2.033 13.248,-5.575 19.235,-9.452 L 12.955,50.094 c -4.93,4.949 -10.149,8.177 -16.415,10.01 -12.923,3.78 -24.092,-3.156 -27.815,-15.882 -3.924,-13.413 3.195,-24.317 16.51,-28.212 5.972,-1.747 12.5,-1.956 18.065,-1.459 z"
             style="fill:#d1d5d4;fill-opacity:1;fill-rule:nonzero;stroke:none"
             id="path98" /></g><g
           id="g100"
           transform="translate(449.0786,247.1074)"><path
             d="m 0,0 50.179,-0.848 -0.227,-13.463 -31.209,0.528 -0.249,-14.687 29.475,-0.498 -0.227,-13.463 -29.475,0.499 -0.273,-16.115 32.331,-0.546 -0.227,-13.463 -51.301,0.868 z"
             style="fill:#d1d5d4;fill-opacity:1;fill-rule:nonzero;stroke:none"
             id="path102" /></g><g
           id="g104"
           transform="translate(549.2744,237.9189)"><path
             d="m 0,0 -10.05,-13.122 -11.869,9.795 18.487,22.119 15.988,4.918 20.928,-68.047 -18.132,-5.577 z"
             style="fill:#d1d5d4;fill-opacity:1;fill-rule:nonzero;stroke:none"
             id="path106" /></g><g
           id="g108"
           transform="translate(598.0723,267.3428)"><path
             d="m 0,0 c -5.137,-2.936 -5.604,-8.489 -2.872,-13.271 2.936,-5.137 7.744,-8.617 13.501,-5.327 5.402,3.088 5.579,8.946 2.846,13.728 C 10.59,0.178 5.313,3.037 0,0 m 3.229,-49.026 c 3.669,-0.253 8.869,0.721 14.891,4.163 10.982,6.276 10.197,15.462 4.06,26.405 l -0.177,-0.101 c -0.544,-5.833 -3.58,-10.387 -9.779,-13.93 -11.336,-6.479 -23.318,-2.165 -29.645,8.905 -6.529,11.425 -2.38,26.367 11.259,34.161 17.623,10.072 31.63,-0.251 40.487,-15.75 10.832,-18.952 12.971,-38.524 -7.487,-50.216 -6.288,-3.593 -11.893,-5.505 -17.649,-6.327 z"
             style="fill:#d1d5d4;fill-opacity:1;fill-rule:nonzero;stroke:none"
             id="path110" /></g><g
           id="g112"
           transform="translate(655.6313,248.3564)"><path
             d="m 0,0 c 2.028,19.055 4.932,40.461 -1.61,47.47 -4.315,4.624 -9.331,3.57 -13.507,-0.327 -4.474,-4.176 -8.839,-11.459 -10.305,-16.316 l -10.614,10.325 c 4.952,9.645 9.526,14.611 12.583,17.464 11.633,10.857 24.578,13.73 34.252,3.364 9.465,-10.141 8.037,-30.587 7.083,-39.431 L 17.146,15.862 37.728,35.071 46.914,25.228 9.256,-9.918 Z"
             style="fill:#d1d5d4;fill-opacity:1;fill-rule:nonzero;stroke:none"
             id="path114" /></g><g
           id="g116"
           transform="translate(658.1777,330.8643)"><path
             d="M 0,0 25.702,38.644 36.403,31.526 19.739,6.472 29.591,-0.081 c 1.299,2.321 2.089,3.878 2.767,4.897 8.021,12.06 20.349,19.174 33.428,10.475 16.561,-11.015 13.212,-27.285 4.4,-40.534 -3.897,-5.861 -8.278,-10.42 -12.686,-14.47 l -12.656,8.784 c 5.202,3.033 9.498,7.282 12.83,12.292 3.842,5.776 6.012,13.275 -1.547,18.302 -6.625,4.406 -13.238,-1.118 -17.419,-7.402 -2.88,-4.332 -5.421,-8.889 -7.142,-13.87 z"
             style="fill:#d1d5d4;fill-opacity:1;fill-rule:nonzero;stroke:none"
             id="path118" /></g></g></g></g></svg>
