<?xml version="1.0" encoding="UTF-8" standalone="no"?>
<svg
   xmlns:dc="http://purl.org/dc/elements/1.1/"
   xmlns:cc="http://creativecommons.org/ns#"
   xmlns:rdf="http://www.w3.org/1999/02/22-rdf-syntax-ns#"
   xmlns:svg="http://www.w3.org/2000/svg"
   xmlns="http://www.w3.org/2000/svg"
   xmlns:sodipodi="http://sodipodi.sourceforge.net/DTD/sodipodi-0.dtd"
   xmlns:inkscape="http://www.inkscape.org/namespaces/inkscape"
   version="1.1"
   id="svg2"
   xml:space="preserve"
   width="32"
   height="32"
   viewBox="0 0 32 32"
   sodipodi:docname="Linkedin.svg"
   inkscape:version="1.0.2 (e86c870879, 2021-01-15, custom)"><metadata
     id="metadata8"><rdf:RDF><cc:Work
         rdf:about=""><dc:format>image/svg+xml</dc:format><dc:type
           rdf:resource="http://purl.org/dc/dcmitype/StillImage" /><dc:title></dc:title></cc:Work></rdf:RDF></metadata><defs
     id="defs6"><clipPath
       clipPathUnits="userSpaceOnUse"
       id="clipPath18"><path
         d="M 0,24 H 24 V 0 H 0 Z"
         id="path16" /></clipPath></defs><sodipodi:namedview
     pagecolor="#ffffff"
     bordercolor="#666666"
     borderopacity="1"
     objecttolerance="10"
     gridtolerance="10"
     guidetolerance="10"
     inkscape:pageopacity="0"
     inkscape:pageshadow="2"
     inkscape:window-width="1920"
     inkscape:window-height="1017"
     id="namedview4"
     showgrid="false"
     inkscape:zoom="13.28125"
     inkscape:cx="2.2062126"
     inkscape:cy="14.146474"
     inkscape:window-x="-8"
     inkscape:window-y="-8"
     inkscape:window-maximized="1"
     inkscape:current-layer="g10" /><g
     id="g10"
     inkscape:groupmode="layer"
     inkscape:label="Linkedin"
     transform="matrix(1.3333333,0,0,-1.3333333,0,32)"><g
       id="g12"
       style="fill:#ffffff;fill-opacity:1"><g
         id="g14"
         clip-path="url(#clipPath18)"
         style="fill:#ffffff;fill-opacity:1"><g
           id="g20"
           transform="translate(13,13.9998)"
           style="fill:#ffffff;fill-opacity:1"><path
             d="m 0,0 h -2 v -6 h 2 v 2.861 c 0,1.722 2.002,1.881 2.002,0 V -6 H 4 v 3.359 C 4,0.643 0.872,0.523 0,-1.093 Z m -3,0 h -2 v -6 h 2 z m 0,2 c 0,-0.557 -0.447,-1.008 -1,-1.008 -0.553,0 -1,0.45 -1,1.008 0,0.557 0.447,1.008 1,1.008 0.553,0 1,-0.452 1,-1.008 m 2,8 c -6.627,0 -12,-5.373 -12,-12 0,-6.627 5.373,-12 12,-12 6.627,0 12,5.373 12,12 0,6.627 -5.373,12 -12,12 M -1,8 C 4.514,8 9,3.514 9,-2 9,-7.514 4.514,-12 -1,-12 c -5.514,0 -10,4.486 -10,10 0,5.514 4.486,10 10,10"
             style="fill:#ffffff;fill-opacity:1;fill-rule:nonzero;stroke:none"
             id="path22" /></g></g></g></g></svg>
