<?xml version="1.0" encoding="UTF-8" standalone="no"?>
<svg
   xmlns:dc="http://purl.org/dc/elements/1.1/"
   xmlns:cc="http://creativecommons.org/ns#"
   xmlns:rdf="http://www.w3.org/1999/02/22-rdf-syntax-ns#"
   xmlns:svg="http://www.w3.org/2000/svg"
   xmlns="http://www.w3.org/2000/svg"
   xmlns:sodipodi="http://sodipodi.sourceforge.net/DTD/sodipodi-0.dtd"
   xmlns:inkscape="http://www.inkscape.org/namespaces/inkscape"
   version="1.1"
   id="svg2"
   xml:space="preserve"
   width="26.666668"
   height="32"
   viewBox="0 0 26.666668 32"
   sodipodi:docname="news-icon2.svg"
   inkscape:version="1.0.2 (e86c870879, 2021-01-15, custom)"><metadata
     id="metadata8"><rdf:RDF><cc:Work
         rdf:about=""><dc:format>image/svg+xml</dc:format><dc:type
           rdf:resource="http://purl.org/dc/dcmitype/StillImage" /><dc:title></dc:title></cc:Work></rdf:RDF></metadata><defs
     id="defs6"><clipPath
       clipPathUnits="userSpaceOnUse"
       id="clipPath18"><path
         d="M 0,24 H 20 V 0 H 0 Z"
         id="path16" /></clipPath></defs><sodipodi:namedview
     pagecolor="#ffffff"
     bordercolor="#666666"
     borderopacity="1"
     objecttolerance="10"
     gridtolerance="10"
     guidetolerance="10"
     inkscape:pageopacity="0"
     inkscape:pageshadow="2"
     inkscape:window-width="1920"
     inkscape:window-height="1017"
     id="namedview4"
     showgrid="false"
     inkscape:zoom="13.28125"
     inkscape:cx="-1.6495593"
     inkscape:cy="14.111883"
     inkscape:window-x="-8"
     inkscape:window-y="-8"
     inkscape:window-maximized="1"
     inkscape:current-layer="g10" /><g
     id="g10"
     inkscape:groupmode="layer"
     inkscape:label="Vector Smart Object"
     transform="matrix(1.3333333,0,0,-1.3333333,0,32)"><g
       id="g12"
       style="fill:#0082c9;fill-opacity:1"><g
         id="g14"
         clip-path="url(#clipPath18)"
         style="fill:#0082c9;fill-opacity:1"><g
           id="g20"
           transform="translate(9.4541,11.9959)"
           style="fill:#0082c9;fill-opacity:1"><path
             d="M 0,0 C -0.057,-0.296 0.029,-0.771 0.129,-1.061 0.242,-0.824 0.384,-0.255 0.326,0.024 0.27,0.303 0.064,0.323 0,0 m -0.314,-3.983 c 0.328,0.109 1.036,0.274 1.213,0.315 -0.02,0.022 -0.528,0.544 -0.695,0.832 -0.134,-0.335 -0.509,-1.127 -0.518,-1.147 m 2.947,-0.128 c 0.235,-0.158 0.557,-0.323 0.911,-0.329 0.412,-0.009 0.377,0.26 -0.082,0.327 -0.2,0.03 -0.488,0.03 -0.829,0.002 m -4.44,-1.201 c -0.253,-0.127 -0.609,-0.348 -0.801,-0.559 -0.299,-0.328 -0.103,-0.586 0.257,-0.233 0.178,0.172 0.392,0.492 0.544,0.792 m -1.199,0.055 c 0.346,0.327 0.932,0.647 1.742,0.954 0.366,0.725 0.731,1.523 1.018,2.232 -0.242,0.507 -0.397,1.039 -0.464,1.588 -0.25,2.061 2.083,1.907 1.729,-0.012 -0.068,-0.368 -0.23,-0.884 -0.483,-1.536 0.367,-0.654 0.849,-1.146 1.233,-1.472 0.524,0.084 1.271,0.17 1.796,0.093 1.397,-0.205 1.22,-1.744 -0.02,-1.744 -0.649,0 -1.463,0.508 -1.972,0.896 -0.779,-0.144 -1.613,-0.365 -2.33,-0.618 -0.229,-0.439 -0.536,-1.001 -0.811,-1.395 -1.143,-1.647 -2.65,-0.127 -1.438,1.014 M 0.735,12.004 H -9.454 v -24 h 20 V 2.39 c 0,2.391 -6.649,9.614 -9.811,9.614 m -0.827,-2 c 4.155,0 2.638,-6 2.638,-6 0,0 6,1.65 6,-2.457 V -9.996 h -16 v 20 z"
             style="fill:#0082c9;fill-opacity:1;fill-rule:nonzero;stroke:none"
             id="path22" /></g></g></g></g></svg>
