<?xml version="1.0" encoding="UTF-8" standalone="no"?>
<svg
   xmlns:dc="http://purl.org/dc/elements/1.1/"
   xmlns:cc="http://creativecommons.org/ns#"
   xmlns:rdf="http://www.w3.org/1999/02/22-rdf-syntax-ns#"
   xmlns:svg="http://www.w3.org/2000/svg"
   xmlns="http://www.w3.org/2000/svg"
   xmlns:sodipodi="http://sodipodi.sourceforge.net/DTD/sodipodi-0.dtd"
   xmlns:inkscape="http://www.inkscape.org/namespaces/inkscape"
   version="1.1"
   id="svg2"
   xml:space="preserve"
   width="32"
   height="32"
   viewBox="0 0 32 32"
   sodipodi:docname="product-icon-3-white.svg"
   inkscape:version="1.0.2 (e86c870879, 2021-01-15, custom)"><metadata
     id="metadata8"><rdf:RDF><cc:Work
         rdf:about=""><dc:format>image/svg+xml</dc:format><dc:type
           rdf:resource="http://purl.org/dc/dcmitype/StillImage" /><dc:title></dc:title></cc:Work></rdf:RDF></metadata><defs
     id="defs6"><clipPath
       clipPathUnits="userSpaceOnUse"
       id="clipPath18"><path
         d="M 0,24 H 24 V 0 H 0 Z"
         id="path16" /></clipPath></defs><sodipodi:namedview
     pagecolor="#ffffff"
     bordercolor="#666666"
     borderopacity="1"
     objecttolerance="10"
     gridtolerance="10"
     guidetolerance="10"
     inkscape:pageopacity="0"
     inkscape:pageshadow="2"
     inkscape:window-width="1920"
     inkscape:window-height="1017"
     id="namedview4"
     showgrid="false"
     inkscape:zoom="18.782524"
     inkscape:cx="14.518577"
     inkscape:cy="17.029199"
     inkscape:window-x="-8"
     inkscape:window-y="-8"
     inkscape:window-maximized="1"
     inkscape:current-layer="g10"
     inkscape:document-rotation="0" /><g
     id="g10"
     inkscape:groupmode="layer"
     inkscape:label="label"
     transform="matrix(1.3333333,0,0,-1.3333333,0,32)"><g
       id="g12"
       style="fill:#ffffff;fill-opacity:1"><g
         id="g14"
         clip-path="url(#clipPath18)"
         style="fill:#ffffff;fill-opacity:1"><g
           id="g20"
           transform="translate(6,19.8548)"
           style="fill:#ffffff;fill-opacity:1"><path
             d="m 0,0 c 1.104,0 2,-0.896 2,-2 0,-1.104 -0.896,-2 -2,-2 -1.104,0 -2,0.896 -2,2 0,1.104 0.896,2 2,2 M -0.25,3.944 C -0.48,4.077 -0.739,4.145 -1,4.145 c -0.524,0 -1.026,-0.277 -1.299,-0.75 l -3.5,-6.062 C -5.932,-2.897 -6,-3.156 -6,-3.416 c 0,-0.527 0.278,-1.028 0.75,-1.3 2.936,-1.695 14.58,-8.7 17.516,-10.396 0.718,-0.413 1.633,-0.168 2.048,0.55 l 3.5,6.062 c 0.133,0.23 0.186,0.488 0.186,0.749 0,0.52 -0.257,1.025 -0.734,1.3 L -0.25,3.944 m -1.9,-12.813 c 3.278,-1.952 12.866,-7.658 13.121,-7.804 l -5.162,-2.981 c -0.231,-0.132 -0.49,-0.201 -0.751,-0.201 -0.549,0 -1.037,0.298 -1.299,0.75 z M -5,-8.01 c 2.256,-3.97 4.55,-7.918 6.879,-11.845 H -3.5 c -0.829,0 -1.5,0.675 -1.5,1.5 z"
             style="fill:#ffffff;fill-opacity:1;fill-rule:evenodd;stroke:none"
             id="path22" /></g></g></g></g></svg>
